<svg id="visual" viewBox="0 0 960 540" width="960" height="540" xmlns="http://www.w3.org/2000/svg" xmlns:xlink="http://www.w3.org/1999/xlink" version="1.1"><rect x="0" y="0" width="960" height="540" fill="#4285F4"></rect><defs><linearGradient id="grad1_0" x1="43.8%" y1="0%" x2="100%" y2="100%"><stop offset="14.444444444444446%" stop-color="#f4b400" stop-opacity="1"></stop><stop offset="85.55555555555554%" stop-color="#f4b400" stop-opacity="1"></stop></linearGradient></defs><defs><linearGradient id="grad1_1" x1="43.8%" y1="0%" x2="100%" y2="100%"><stop offset="14.444444444444446%" stop-color="#f4b400" stop-opacity="1"></stop><stop offset="85.55555555555554%" stop-color="#ff9636" stop-opacity="1"></stop></linearGradient></defs><defs><linearGradient id="grad1_2" x1="43.8%" y1="0%" x2="100%" y2="100%"><stop offset="14.444444444444446%" stop-color="#ff795f" stop-opacity="1"></stop><stop offset="85.55555555555554%" stop-color="#ff9636" stop-opacity="1"></stop></linearGradient></defs><defs><linearGradient id="grad1_3" x1="43.8%" y1="0%" x2="100%" y2="100%"><stop offset="14.444444444444446%" stop-color="#ff795f" stop-opacity="1"></stop><stop offset="85.55555555555554%" stop-color="#ff648a" stop-opacity="1"></stop></linearGradient></defs><defs><linearGradient id="grad1_4" x1="43.8%" y1="0%" x2="100%" y2="100%"><stop offset="14.444444444444446%" stop-color="#ff60b3" stop-opacity="1"></stop><stop offset="85.55555555555554%" stop-color="#ff648a" stop-opacity="1"></stop></linearGradient></defs><defs><linearGradient id="grad1_5" x1="43.8%" y1="0%" x2="100%" y2="100%"><stop offset="14.444444444444446%" stop-color="#ff60b3" stop-opacity="1"></stop><stop offset="85.55555555555554%" stop-color="#de6bd6" stop-opacity="1"></stop></linearGradient></defs><defs><linearGradient id="grad1_6" x1="43.8%" y1="0%" x2="100%" y2="100%"><stop offset="14.444444444444446%" stop-color="#a17aed" stop-opacity="1"></stop><stop offset="85.55555555555554%" stop-color="#de6bd6" stop-opacity="1"></stop></linearGradient></defs><defs><linearGradient id="grad1_7" x1="43.8%" y1="0%" x2="100%" y2="100%"><stop offset="14.444444444444446%" stop-color="#a17aed" stop-opacity="1"></stop><stop offset="85.55555555555554%" stop-color="#4285f4" stop-opacity="1"></stop></linearGradient></defs><defs><linearGradient id="grad2_0" x1="0%" y1="0%" x2="56.3%" y2="100%"><stop offset="14.444444444444446%" stop-color="#f4b400" stop-opacity="1"></stop><stop offset="85.55555555555554%" stop-color="#f4b400" stop-opacity="1"></stop></linearGradient></defs><defs><linearGradient id="grad2_1" x1="0%" y1="0%" x2="56.3%" y2="100%"><stop offset="14.444444444444446%" stop-color="#ff9636" stop-opacity="1"></stop><stop offset="85.55555555555554%" stop-color="#f4b400" stop-opacity="1"></stop></linearGradient></defs><defs><linearGradient id="grad2_2" x1="0%" y1="0%" x2="56.3%" y2="100%"><stop offset="14.444444444444446%" stop-color="#ff9636" stop-opacity="1"></stop><stop offset="85.55555555555554%" stop-color="#ff795f" stop-opacity="1"></stop></linearGradient></defs><defs><linearGradient id="grad2_3" x1="0%" y1="0%" x2="56.3%" y2="100%"><stop offset="14.444444444444446%" stop-color="#ff648a" stop-opacity="1"></stop><stop offset="85.55555555555554%" stop-color="#ff795f" stop-opacity="1"></stop></linearGradient></defs><defs><linearGradient id="grad2_4" x1="0%" y1="0%" x2="56.3%" y2="100%"><stop offset="14.444444444444446%" stop-color="#ff648a" stop-opacity="1"></stop><stop offset="85.55555555555554%" stop-color="#ff60b3" stop-opacity="1"></stop></linearGradient></defs><defs><linearGradient id="grad2_5" x1="0%" y1="0%" x2="56.3%" y2="100%"><stop offset="14.444444444444446%" stop-color="#de6bd6" stop-opacity="1"></stop><stop offset="85.55555555555554%" stop-color="#ff60b3" stop-opacity="1"></stop></linearGradient></defs><defs><linearGradient id="grad2_6" x1="0%" y1="0%" x2="56.3%" y2="100%"><stop offset="14.444444444444446%" stop-color="#de6bd6" stop-opacity="1"></stop><stop offset="85.55555555555554%" stop-color="#a17aed" stop-opacity="1"></stop></linearGradient></defs><defs><linearGradient id="grad2_7" x1="0%" y1="0%" x2="56.3%" y2="100%"><stop offset="14.444444444444446%" stop-color="#4285f4" stop-opacity="1"></stop><stop offset="85.55555555555554%" stop-color="#a17aed" stop-opacity="1"></stop></linearGradient></defs><g transform="translate(960, 0)"><path d="M0 285C-11.4 283.4 -22.9 281.9 -34 279.9C-45.1 278 -55.8 275.8 -68.2 276.7C-80.6 277.7 -94.5 281.8 -105.3 277.7C-116.1 273.6 -123.7 261.2 -132.4 252.4C-141.2 243.6 -151 238.4 -160.2 232.1C-169.4 225.8 -178 218.4 -187.7 211.8C-197.3 205.3 -208.1 199.6 -216.3 191.6C-224.6 183.7 -230.3 173.5 -237.8 164.2C-245.4 154.9 -254.8 146.5 -258.6 135.7C-262.3 124.9 -260.5 111.6 -265.5 100.7C-270.6 89.8 -282.5 81.3 -285.5 70.4C-288.4 59.5 -282.5 46.2 -280.9 34.1C-279.4 22 -282.2 11 -285 0L0 0Z" fill="#7a80f3"></path><path d="M0 249.4C-10 248 -20 246.6 -29.7 245C-39.5 243.3 -48.9 241.3 -59.7 242.1C-70.5 243 -82.7 246.6 -92.2 243C-101.6 239.4 -108.3 228.5 -115.9 220.8C-123.5 213.1 -132.1 208.6 -140.2 203.1C-148.2 197.6 -155.7 191.1 -164.2 185.3C-172.7 179.6 -182.1 174.6 -189.3 167.7C-196.5 160.7 -201.5 151.8 -208.1 143.6C-214.7 135.5 -222.9 128.2 -226.2 118.7C-229.5 109.3 -227.9 97.7 -232.4 88.1C-236.8 78.6 -247.2 71.1 -249.8 61.6C-252.4 52 -247.2 40.5 -245.8 29.8C-244.5 19.2 -246.9 9.6 -249.4 0L0 0Z" fill="#c372e4"></path><path d="M0 213.8C-8.6 212.6 -17.2 211.4 -25.5 210C-33.8 208.5 -41.9 206.8 -51.2 207.5C-60.4 208.3 -70.9 211.4 -79 208.3C-87.1 205.2 -92.8 195.9 -99.3 189.3C-105.9 182.7 -113.2 178.8 -120.1 174.1C-127.1 169.3 -133.5 163.8 -140.7 158.9C-148 154 -156.1 149.7 -162.2 143.7C-168.4 137.8 -172.7 130.1 -178.4 123.1C-184 116.2 -191.1 109.9 -193.9 101.8C-196.7 93.7 -195.4 83.7 -199.2 75.5C-202.9 67.3 -211.9 60.9 -214.1 52.8C-216.3 44.6 -211.9 34.7 -210.7 25.6C-209.5 16.5 -211.6 8.2 -213.7 0L0 0Z" fill="#f564c6"></path><path d="M0 178.1C-7.2 177.1 -14.3 176.2 -21.2 175C-28.2 173.8 -34.9 172.4 -42.6 172.9C-50.4 173.5 -59.1 176.1 -65.8 173.6C-72.6 171 -77.3 163.2 -82.8 157.7C-88.2 152.2 -94.4 149 -100.1 145.1C-105.9 141.1 -111.2 136.5 -117.3 132.4C-123.3 128.3 -130.1 124.7 -135.2 119.8C-140.3 114.8 -143.9 108.4 -148.7 102.6C-153.4 96.8 -159.2 91.6 -161.6 84.8C-164 78.1 -162.8 69.8 -166 62.9C-169.1 56.1 -176.5 50.8 -178.4 44C-180.3 37.2 -176.6 28.9 -175.6 21.3C-174.6 13.7 -176.4 6.9 -178.1 0L0 0Z" fill="#ff609f"></path><path d="M0 142.5C-5.7 141.7 -11.4 140.9 -17 140C-22.5 139 -27.9 137.9 -34.1 138.4C-40.3 138.8 -47.3 140.9 -52.7 138.8C-58.1 136.8 -61.9 130.6 -66.2 126.2C-70.6 121.8 -75.5 119.2 -80.1 116C-84.7 112.9 -89 109.2 -93.8 105.9C-98.7 102.6 -104 99.8 -108.2 95.8C-112.3 91.8 -115.1 86.7 -118.9 82.1C-122.7 77.4 -127.4 73.3 -129.3 67.8C-131.2 62.4 -130.3 55.8 -132.8 50.4C-135.3 44.9 -141.2 40.6 -142.7 35.2C-144.2 29.7 -141.2 23.1 -140.5 17.1C-139.7 11 -141.1 5.5 -142.5 0L0 0Z" fill="#ff6d74"></path><path d="M0 106.9C-4.3 106.3 -8.6 105.7 -12.7 105C-16.9 104.3 -20.9 103.4 -25.6 103.8C-30.2 104.1 -35.4 105.7 -39.5 104.1C-43.5 102.6 -46.4 97.9 -49.7 94.6C-52.9 91.3 -56.6 89.4 -60.1 87C-63.5 84.7 -66.7 81.9 -70.4 79.4C-74 77 -78 74.8 -81.1 71.9C-84.2 68.9 -86.4 65 -89.2 61.6C-92 58.1 -95.5 54.9 -97 50.9C-98.4 46.8 -97.7 41.9 -99.6 37.8C-101.5 33.7 -105.9 30.5 -107 26.4C-108.2 22.3 -105.9 17.3 -105.4 12.8C-104.8 8.2 -105.8 4.1 -106.9 0L0 0Z" fill="#ff874a"></path><path d="M0 71.3C-2.9 70.9 -5.7 70.5 -8.5 70C-11.3 69.5 -14 68.9 -17.1 69.2C-20.1 69.4 -23.6 70.5 -26.3 69.4C-29 68.4 -30.9 65.3 -33.1 63.1C-35.3 60.9 -37.7 59.6 -40 58C-42.4 56.4 -44.5 54.6 -46.9 53C-49.3 51.3 -52 49.9 -54.1 47.9C-56.1 45.9 -57.6 43.4 -59.5 41C-61.3 38.7 -63.7 36.6 -64.6 33.9C-65.6 31.2 -65.1 27.9 -66.4 25.2C-67.6 22.4 -70.6 20.3 -71.4 17.6C-72.1 14.9 -70.6 11.6 -70.2 8.5C-69.8 5.5 -70.5 2.7 -71.2 0L0 0Z" fill="#ffa51f"></path><path d="M0 35.6C-1.4 35.4 -2.9 35.2 -4.2 35C-5.6 34.8 -7 34.5 -8.5 34.6C-10.1 34.7 -11.8 35.2 -13.2 34.7C-14.5 34.2 -15.5 32.6 -16.6 31.5C-17.6 30.4 -18.9 29.8 -20 29C-21.2 28.2 -22.2 27.3 -23.5 26.5C-24.7 25.7 -26 24.9 -27 24C-28.1 23 -28.8 21.7 -29.7 20.5C-30.7 19.4 -31.8 18.3 -32.3 17C-32.8 15.6 -32.6 14 -33.2 12.6C-33.8 11.2 -35.3 10.2 -35.7 8.8C-36.1 7.4 -35.3 5.8 -35.1 4.3C-34.9 2.7 -35.3 1.4 -35.6 0L0 0Z" fill="#f4b400"></path></g><g transform="translate(0, 540)"><path d="M0 -293C11.7 -291.9 23.5 -290.8 35.2 -289.9C46.9 -288.9 58.7 -288 70.6 -286.4C82.5 -284.8 94.5 -282.5 105 -276.8C115.4 -271.1 124.3 -262 133.4 -254.1C142.4 -246.2 151.6 -239.5 160.8 -232.9C169.9 -226.3 179 -219.7 189.7 -214.1C200.3 -208.5 212.5 -203.8 220.8 -195.6C229.1 -187.4 233.5 -175.8 240.3 -165.9C247.1 -156 256.4 -147.9 263 -138C269.6 -128.2 273.6 -116.6 276.8 -105C279.9 -93.3 282.2 -81.6 283.5 -69.9C284.8 -58.1 285.2 -46.3 284.9 -34.6C284.7 -22.9 283.8 -11.5 283 0L0 0Z" fill="#7a80f3"></path><path d="M0 -256.4C10.3 -255.4 20.5 -254.5 30.8 -253.6C41.1 -252.8 51.4 -252 61.8 -250.6C72.2 -249.2 82.7 -247.2 91.8 -242.2C101 -237.2 108.8 -229.3 116.7 -222.4C124.6 -215.5 132.7 -209.6 140.7 -203.8C148.7 -198 156.6 -192.2 165.9 -187.3C175.3 -182.4 185.9 -178.3 193.2 -171.2C200.5 -164 204.3 -153.8 210.3 -145.1C216.2 -136.5 224.3 -129.4 230.1 -120.8C235.9 -112.2 239.4 -102 242.2 -91.8C244.9 -81.7 246.9 -71.4 248.1 -61.1C249.2 -50.8 249.5 -40.5 249.3 -30.3C249.1 -20.1 248.4 -10 247.6 0L0 0Z" fill="#c372e4"></path><path d="M0 -219.7C8.8 -218.9 17.6 -218.1 26.4 -217.4C35.2 -216.7 44 -216 52.9 -214.8C61.9 -213.6 70.9 -211.9 78.7 -207.6C86.6 -203.3 93.2 -196.5 100 -190.6C106.8 -184.7 113.7 -179.7 120.6 -174.7C127.4 -169.7 134.3 -164.8 142.2 -160.6C150.2 -156.3 159.4 -152.8 165.6 -146.7C171.8 -140.6 175.1 -131.8 180.2 -124.4C185.3 -117 192.3 -110.9 197.2 -103.5C202.2 -96.1 205.2 -87.4 207.6 -78.7C209.9 -70 211.7 -61.2 212.6 -52.4C213.6 -43.6 213.9 -34.7 213.7 -25.9C213.5 -17.2 212.9 -8.6 212.3 0L0 0Z" fill="#f564c6"></path><path d="M0 -183.1C7.3 -182.5 14.7 -181.8 22 -181.2C29.3 -180.6 36.7 -180 44.1 -179C51.6 -178 59.1 -176.5 65.6 -173C72.1 -169.4 77.7 -163.8 83.4 -158.8C89 -153.9 94.8 -149.7 100.5 -145.6C106.2 -141.4 111.9 -137.3 118.5 -133.8C125.2 -130.3 132.8 -127.4 138 -122.3C143.2 -117.2 145.9 -109.9 150.2 -103.7C154.5 -97.5 160.2 -92.4 164.4 -86.3C168.5 -80.1 171 -72.9 173 -65.6C174.9 -58.3 176.4 -51 177.2 -43.7C178 -36.3 178.2 -28.9 178.1 -21.6C177.9 -14.3 177.4 -7.2 176.9 0L0 0Z" fill="#ff609f"></path><path d="M0 -146.5C5.9 -146 11.7 -145.4 17.6 -144.9C23.5 -144.4 29.4 -144 35.3 -143.2C41.2 -142.4 47.3 -141.2 52.5 -138.4C57.7 -135.5 62.2 -131 66.7 -127.1C71.2 -123.1 75.8 -119.8 80.4 -116.5C85 -113.1 89.5 -109.8 94.8 -107C100.2 -104.2 106.3 -101.9 110.4 -97.8C114.6 -93.7 116.7 -87.9 120.2 -82.9C123.6 -78 128.2 -73.9 131.5 -69C134.8 -64.1 136.8 -58.3 138.4 -52.5C140 -46.7 141.1 -40.8 141.8 -34.9C142.4 -29.1 142.6 -23.1 142.5 -17.3C142.3 -11.5 141.9 -5.7 141.5 0L0 0Z" fill="#ff6d74"></path><path d="M0 -109.9C4.4 -109.5 8.8 -109.1 13.2 -108.7C17.6 -108.3 22 -108 26.5 -107.4C30.9 -106.8 35.4 -105.9 39.4 -103.8C43.3 -101.6 46.6 -98.3 50 -95.3C53.4 -92.3 56.9 -89.8 60.3 -87.3C63.7 -84.8 67.1 -82.4 71.1 -80.3C75.1 -78.2 79.7 -76.4 82.8 -73.4C85.9 -70.3 87.6 -65.9 90.1 -62.2C92.7 -58.5 96.1 -55.5 98.6 -51.8C101.1 -48.1 102.6 -43.7 103.8 -39.4C105 -35 105.8 -30.6 106.3 -26.2C106.8 -21.8 106.9 -17.3 106.8 -13C106.7 -8.6 106.4 -4.3 106.1 0L0 0Z" fill="#ff874a"></path><path d="M0 -73.2C2.9 -73 5.9 -72.7 8.8 -72.5C11.7 -72.2 14.7 -72 17.6 -71.6C20.6 -71.2 23.6 -70.6 26.2 -69.2C28.9 -67.8 31.1 -65.5 33.3 -63.5C35.6 -61.6 37.9 -59.9 40.2 -58.2C42.5 -56.6 44.8 -54.9 47.4 -53.5C50.1 -52.1 53.1 -50.9 55.2 -48.9C57.3 -46.9 58.4 -43.9 60.1 -41.5C61.8 -39 64.1 -37 65.7 -34.5C67.4 -32 68.4 -29.1 69.2 -26.2C70 -23.3 70.6 -20.4 70.9 -17.5C71.2 -14.5 71.3 -11.6 71.2 -8.6C71.2 -5.7 71 -2.9 70.8 0L0 0Z" fill="#ffa51f"></path><path d="M0 -36.6C1.5 -36.5 2.9 -36.4 4.4 -36.2C5.9 -36.1 7.3 -36 8.8 -35.8C10.3 -35.6 11.8 -35.3 13.1 -34.6C14.4 -33.9 15.5 -32.8 16.7 -31.8C17.8 -30.8 19 -29.9 20.1 -29.1C21.2 -28.3 22.4 -27.5 23.7 -26.8C25 -26.1 26.6 -25.5 27.6 -24.5C28.6 -23.4 29.2 -22 30 -20.7C30.9 -19.5 32 -18.5 32.9 -17.3C33.7 -16 34.2 -14.6 34.6 -13.1C35 -11.7 35.3 -10.2 35.4 -8.7C35.6 -7.3 35.6 -5.8 35.6 -4.3C35.6 -2.9 35.5 -1.4 35.4 0L0 0Z" fill="#f4b400"></path></g></svg>