
<svg id="visual" viewBox="0 0 960 540" width="960" height="540" xmlns="http://www.w3.org/2000/svg" xmlns:xlink="http://www.w3.org/1999/xlink" version="1.1"><rect x="0" y="0" width="960" height="540" fill="#4285F4"></rect><defs><linearGradient id="grad1_0" x1="43.8%" y1="0%" x2="100%" y2="100%"><stop offset="14.444444444444446%" stop-color="#f4b400" stop-opacity="1"></stop><stop offset="85.55555555555554%" stop-color="#f4b400" stop-opacity="1"></stop></linearGradient></defs><defs><linearGradient id="grad1_1" x1="43.8%" y1="0%" x2="100%" y2="100%"><stop offset="14.444444444444446%" stop-color="#f4b400" stop-opacity="1"></stop><stop offset="85.55555555555554%" stop-color="#ff9636" stop-opacity="1"></stop></linearGradient></defs><defs><linearGradient id="grad1_2" x1="43.8%" y1="0%" x2="100%" y2="100%"><stop offset="14.444444444444446%" stop-color="#ff795f" stop-opacity="1"></stop><stop offset="85.55555555555554%" stop-color="#ff9636" stop-opacity="1"></stop></linearGradient></defs><defs><linearGradient id="grad1_3" x1="43.8%" y1="0%" x2="100%" y2="100%"><stop offset="14.444444444444446%" stop-color="#ff795f" stop-opacity="1"></stop><stop offset="85.55555555555554%" stop-color="#ff648a" stop-opacity="1"></stop></linearGradient></defs><defs><linearGradient id="grad1_4" x1="43.8%" y1="0%" x2="100%" y2="100%"><stop offset="14.444444444444446%" stop-color="#ff60b3" stop-opacity="1"></stop><stop offset="85.55555555555554%" stop-color="#ff648a" stop-opacity="1"></stop></linearGradient></defs><defs><linearGradient id="grad1_5" x1="43.8%" y1="0%" x2="100%" y2="100%"><stop offset="14.444444444444446%" stop-color="#ff60b3" stop-opacity="1"></stop><stop offset="85.55555555555554%" stop-color="#de6bd6" stop-opacity="1"></stop></linearGradient></defs><defs><linearGradient id="grad1_6" x1="43.8%" y1="0%" x2="100%" y2="100%"><stop offset="14.444444444444446%" stop-color="#a17aed" stop-opacity="1"></stop><stop offset="85.55555555555554%" stop-color="#de6bd6" stop-opacity="1"></stop></linearGradient></defs><defs><linearGradient id="grad1_7" x1="43.8%" y1="0%" x2="100%" y2="100%"><stop offset="14.444444444444446%" stop-color="#a17aed" stop-opacity="1"></stop><stop offset="85.55555555555554%" stop-color="#4285f4" stop-opacity="1"></stop></linearGradient></defs><defs><linearGradient id="grad2_0" x1="0%" y1="0%" x2="56.3%" y2="100%"><stop offset="14.444444444444446%" stop-color="#f4b400" stop-opacity="1"></stop><stop offset="85.55555555555554%" stop-color="#f4b400" stop-opacity="1"></stop></linearGradient></defs><defs><linearGradient id="grad2_1" x1="0%" y1="0%" x2="56.3%" y2="100%"><stop offset="14.444444444444446%" stop-color="#ff9636" stop-opacity="1"></stop><stop offset="85.55555555555554%" stop-color="#f4b400" stop-opacity="1"></stop></linearGradient></defs><defs><linearGradient id="grad2_2" x1="0%" y1="0%" x2="56.3%" y2="100%"><stop offset="14.444444444444446%" stop-color="#ff9636" stop-opacity="1"></stop><stop offset="85.55555555555554%" stop-color="#ff795f" stop-opacity="1"></stop></linearGradient></defs><defs><linearGradient id="grad2_3" x1="0%" y1="0%" x2="56.3%" y2="100%"><stop offset="14.444444444444446%" stop-color="#ff648a" stop-opacity="1"></stop><stop offset="85.55555555555554%" stop-color="#ff795f" stop-opacity="1"></stop></linearGradient></defs><defs><linearGradient id="grad2_4" x1="0%" y1="0%" x2="56.3%" y2="100%"><stop offset="14.444444444444446%" stop-color="#ff648a" stop-opacity="1"></stop><stop offset="85.55555555555554%" stop-color="#ff60b3" stop-opacity="1"></stop></linearGradient></defs><defs><linearGradient id="grad2_5" x1="0%" y1="0%" x2="56.3%" y2="100%"><stop offset="14.444444444444446%" stop-color="#de6bd6" stop-opacity="1"></stop><stop offset="85.55555555555554%" stop-color="#ff60b3" stop-opacity="1"></stop></linearGradient></defs><defs><linearGradient id="grad2_6" x1="0%" y1="0%" x2="56.3%" y2="100%"><stop offset="14.444444444444446%" stop-color="#de6bd6" stop-opacity="1"></stop><stop offset="85.55555555555554%" stop-color="#a17aed" stop-opacity="1"></stop></linearGradient></defs><defs><linearGradient id="grad2_7" x1="0%" y1="0%" x2="56.3%" y2="100%"><stop offset="14.444444444444446%" stop-color="#4285f4" stop-opacity="1"></stop><stop offset="85.55555555555554%" stop-color="#a17aed" stop-opacity="1"></stop></linearGradient></defs><g transform="translate(960, 0)"><path d="M0 437C-41.1 444.7 -82.2 452.3 -118.5 442.4C-154.9 432.5 -186.4 404.9 -222 384.5C-257.6 364.1 -297.1 350.9 -324.6 324.6C-352 298.2 -367.5 258.9 -385.4 222.5C-403.3 186.1 -423.7 152.8 -433.7 116.2C-443.7 79.6 -443.4 39.8 -443 0L0 0Z" fill="#7a80f3"></path><path d="M0 382.4C-36 389.1 -71.9 395.8 -103.7 387.1C-135.5 378.4 -163.1 354.3 -194.2 336.5C-225.4 318.6 -259.9 307 -284 284C-308 261 -321.5 226.5 -337.2 194.7C-352.9 162.9 -370.7 133.7 -379.5 101.7C-388.3 69.7 -387.9 34.8 -387.6 0L0 0Z" fill="#c372e4"></path><path d="M0 327.8C-30.8 333.5 -61.7 339.2 -88.9 331.8C-116.2 324.3 -139.8 303.7 -166.5 288.4C-193.2 273.1 -222.8 263.2 -243.4 243.4C-264 223.7 -275.6 194.1 -289 166.9C-302.5 139.6 -317.8 114.6 -325.3 87.2C-332.8 59.7 -332.5 29.9 -332.2 0L0 0Z" fill="#f564c6"></path><path d="M0 273.1C-25.7 277.9 -51.4 282.7 -74.1 276.5C-96.8 270.3 -116.5 253.1 -138.7 240.3C-161 227.6 -185.7 219.3 -202.9 202.9C-220 186.4 -229.7 161.8 -240.9 139.1C-252.1 116.3 -264.8 95.5 -271.1 72.6C-277.3 49.8 -277.1 24.9 -276.9 0L0 0Z" fill="#ff609f"></path><path d="M0 218.5C-20.6 222.3 -41.1 226.2 -59.3 221.2C-77.4 216.2 -93.2 202.5 -111 192.3C-128.8 182.1 -148.5 175.4 -162.3 162.3C-176 149.1 -183.7 129.4 -192.7 111.3C-201.6 93.1 -211.8 76.4 -216.9 58.1C-221.9 39.8 -221.7 19.9 -221.5 0L0 0Z" fill="#ff6d74"></path><path d="M0 163.9C-15.4 166.7 -30.8 169.6 -44.5 165.9C-58.1 162.2 -69.9 151.8 -83.2 144.2C-96.6 136.5 -111.4 131.6 -121.7 121.7C-132 111.8 -137.8 97.1 -144.5 83.4C-151.2 69.8 -158.9 57.3 -162.6 43.6C-166.4 29.9 -166.3 14.9 -166.1 0L0 0Z" fill="#ff874a"></path><path d="M0 109.3C-10.3 111.2 -20.6 113.1 -29.6 110.6C-38.7 108.1 -46.6 101.2 -55.5 96.1C-64.4 91 -74.3 87.7 -81.1 81.1C-88 74.6 -91.9 64.7 -96.3 55.6C-100.8 46.5 -105.9 38.2 -108.4 29.1C-110.9 19.9 -110.8 10 -110.7 0L0 0Z" fill="#ffa51f"></path><path d="M0 54.6C-5.1 55.6 -10.3 56.5 -14.8 55.3C-19.4 54.1 -23.3 50.6 -27.7 48.1C-32.2 45.5 -37.1 43.9 -40.6 40.6C-44 37.3 -45.9 32.4 -48.2 27.8C-50.4 23.3 -53 19.1 -54.2 14.5C-55.5 10 -55.4 5 -55.4 0L0 0Z" fill="#f4b400"></path></g><g transform="translate(0, 540)"><path d="M0 -447C39.8 -445 79.7 -443.1 115.4 -430.8C151.2 -418.5 182.8 -396 218.5 -378.5C254.2 -361 293.8 -348.5 324.6 -324.6C355.3 -300.6 377.1 -265.1 396.6 -229C416.2 -192.9 433.4 -156.3 440.5 -118C447.5 -79.8 444.2 -39.9 441 0L0 0Z" fill="#7a80f3"></path><path d="M0 -391.1C34.9 -389.4 69.7 -387.7 101 -377C132.3 -366.2 160 -346.5 191.2 -331.1C222.4 -315.8 257.1 -305 284 -284C310.9 -263 330 -231.9 347.1 -200.4C364.2 -168.8 379.3 -136.7 385.4 -103.3C391.5 -69.8 388.7 -34.9 385.9 0L0 0Z" fill="#c372e4"></path><path d="M0 -335.2C29.9 -333.8 59.8 -332.3 86.6 -323.1C113.4 -313.9 137.1 -297 163.9 -283.8C190.6 -270.7 220.4 -261.4 243.4 -243.4C266.5 -225.4 282.8 -198.8 297.5 -171.8C312.1 -144.7 325.1 -117.2 330.3 -88.5C335.6 -59.8 333.2 -29.9 330.8 0L0 0Z" fill="#f564c6"></path><path d="M0 -279.4C24.9 -278.1 49.8 -276.9 72.1 -269.3C94.5 -261.6 114.3 -247.5 136.6 -236.5C158.9 -225.6 183.6 -217.8 202.9 -202.9C222.1 -187.9 235.7 -165.7 247.9 -143.1C260.1 -120.6 270.9 -97.7 275.3 -73.8C279.7 -49.9 277.6 -24.9 275.6 0L0 0Z" fill="#ff609f"></path><path d="M0 -223.5C19.9 -222.5 39.8 -221.5 57.7 -215.4C75.6 -209.3 91.4 -198 109.2 -189.2C127.1 -180.5 146.9 -174.3 162.3 -162.3C177.6 -150.3 188.6 -132.5 198.3 -114.5C208.1 -96.5 216.7 -78.1 220.2 -59C223.7 -39.9 222.1 -19.9 220.5 0L0 0Z" fill="#ff6d74"></path><path d="M0 -167.6C14.9 -166.9 29.9 -166.2 43.3 -161.6C56.7 -156.9 68.6 -148.5 81.9 -141.9C95.3 -135.4 110.2 -130.7 121.7 -121.7C133.2 -112.7 141.4 -99.4 148.7 -85.9C156.1 -72.3 162.5 -58.6 165.2 -44.3C167.8 -29.9 166.6 -15 165.4 0L0 0Z" fill="#ff874a"></path><path d="M0 -111.7C10 -111.3 19.9 -110.8 28.9 -107.7C37.8 -104.6 45.7 -99 54.6 -94.6C63.5 -90.2 73.5 -87.1 81.1 -81.1C88.8 -75.1 94.3 -66.3 99.2 -57.3C104 -48.2 108.4 -39.1 110.1 -29.5C111.9 -19.9 111.1 -10 110.3 0L0 0Z" fill="#ffa51f"></path><path d="M0 -55.9C5 -55.6 10 -55.4 14.4 -53.9C18.9 -52.3 22.9 -49.5 27.3 -47.3C31.8 -45.1 36.7 -43.6 40.6 -40.6C44.4 -37.6 47.1 -33.1 49.6 -28.6C52 -24.1 54.2 -19.5 55.1 -14.8C55.9 -10 55.5 -5 55.1 0L0 0Z" fill="#f4b400"></path></g></svg>